# xmcd
#
# Track frame offsets: 
#        150
#        17182
#        33072
#        50702
#        64132
#        77885
#        91950
#        101862
#        115927
#        125205
#        143135
#        153922
#        166692
#
# Disc length: 2490 seconds
#
# Revision: 8
# Processed by: cddbd v1.5.2PL0 Copyright (c) Steve Scherf et al.
# Submitted via: ExactAudioCopy v0.99pb5
#
DISCID=ac09b80d
DTITLE=Howlin' Wolf - The London Howlin' Wolf Sessions
DYEAR=1989
DGENRE=Blues
TTITLE0=Rockin' Daddy
TTITLE1=I Ain't Superstitious
TTITLE2=Sittin' On Top of the World
TTITLE3=Worried About My Baby
TTITLE4=What a Woman!
TTITLE5=Poor Boy
TTITLE6=Built for Comfort
TTITLE7=Who's Been Talking?
TTITLE8=The Red Rooster (False Start and Dialogue)
TTITLE9=The Red Rooster
TTITLE10=Do the Do
TTITLE11=Highway 49
TTITLE12=Wang Dang Doodle
EXTD=YEAR: 1989
EXTT0=
EXTT1=
EXTT2=
EXTT3=
EXTT4=
EXTT5=
EXTT6=
EXTT7=
EXTT8=
EXTT9=
EXTT10=
EXTT11=
EXTT12=
PLAYORDER=
